<svg width="28" height="32" viewBox="0 0 28 32" fill="none" xmlns="http://www.w3.org/2000/svg">
<g opacity="0.3" filter="url(#filter0_f)">
<path d="M14.1434 14.1707C16.6282 14.1707 18.6425 12.1618 18.6425 9.68368C18.6425 7.2056 16.6282 5.19672 14.1434 5.19672C11.6585 5.19672 9.64418 7.2056 9.64418 9.68368C9.64418 12.1618 11.6585 14.1707 14.1434 14.1707Z" fill="url(#paint0_radial)"/>
<path d="M14.1433 15.4549C9.09359 15.4549 5 19.5374 5 24.5735C5 25.6375 5.86481 26.5 6.93176 26.5H21.3551C22.4219 26.5 23.2869 25.6375 23.2869 24.5735C23.2869 19.5374 19.1931 15.4549 14.1433 15.4549Z" fill="url(#paint1_radial)"/>
</g>
<g opacity="0.2">
<path d="M18.6679 12.4739C21.1528 12.4739 23.1671 10.4651 23.1671 7.98697C23.1671 5.50888 21.1528 3.5 18.6679 3.5C16.1831 3.5 14.1688 5.50888 14.1688 7.98697C14.1688 10.4651 16.1831 12.4739 18.6679 12.4739Z" fill="white"/>
<path d="M18.6679 13.7582C13.6182 13.7582 9.5246 17.8407 9.5246 22.8768C9.5246 23.9408 10.3894 24.8033 11.4564 24.8033H25.8797C26.9465 24.8033 27.8115 23.9408 27.8115 22.8768C27.8115 17.8407 23.7177 13.7582 18.6679 13.7582Z" fill="white"/>
</g>
<path d="M14.1434 12.4739C16.6282 12.4739 18.6425 10.4651 18.6425 7.98697C18.6425 5.50888 16.6282 3.5 14.1434 3.5C11.6585 3.5 9.64418 5.50888 9.64418 7.98697C9.64418 10.4651 11.6585 12.4739 14.1434 12.4739Z" fill="#1D2535"/>
<path d="M14.1434 12.4739C16.6282 12.4739 18.6425 10.4651 18.6425 7.98697C18.6425 5.50888 16.6282 3.5 14.1434 3.5C11.6585 3.5 9.64418 5.50888 9.64418 7.98697C9.64418 10.4651 11.6585 12.4739 14.1434 12.4739Z" fill="url(#paint2_radial)"/>
<path d="M14.1433 13.7582C9.09359 13.7582 5 17.8407 5 22.8768C5 23.9408 5.86481 24.8033 6.93176 24.8033H21.3551C22.4219 24.8033 23.2869 23.9408 23.2869 22.8768C23.2869 17.8407 19.1931 13.7582 14.1433 13.7582Z" fill="#1D2535"/>
<path d="M14.1433 13.7582C9.09359 13.7582 5 17.8407 5 22.8768C5 23.9408 5.86481 24.8033 6.93176 24.8033H21.3551C22.4219 24.8033 23.2869 23.9408 23.2869 22.8768C23.2869 17.8407 19.1931 13.7582 14.1433 13.7582Z" fill="url(#paint3_radial)"/>
<defs>
<filter id="filter0_f" x="0.286885" y="0.483602" width="27.7131" height="30.7295" filterUnits="userSpaceOnUse" color-interpolation-filters="sRGB">
<feFlood flood-opacity="0" result="BackgroundImageFix"/>
<feBlend mode="normal" in="SourceGraphic" in2="BackgroundImageFix" result="shape"/>
<feGaussianBlur stdDeviation="2.35656" result="effect1_foregroundBlur"/>
</filter>
<radialGradient id="paint0_radial" cx="0" cy="0" r="1" gradientUnits="userSpaceOnUse" gradientTransform="translate(18.319 26.5) rotate(-123.892) scale(25.6637 25.1968)">
<stop stop-color="#FFB8E0"/>
<stop offset="0.38895" stop-color="#BE9EFF"/>
<stop offset="0.673962" stop-color="#88C0FC"/>
<stop offset="1" stop-color="#86FF99"/>
</radialGradient>
<radialGradient id="paint1_radial" cx="0" cy="0" r="1" gradientUnits="userSpaceOnUse" gradientTransform="translate(18.319 26.5) rotate(-123.892) scale(25.6637 25.1968)">
<stop stop-color="#FFB8E0"/>
<stop offset="0.38895" stop-color="#BE9EFF"/>
<stop offset="0.673962" stop-color="#88C0FC"/>
<stop offset="1" stop-color="#86FF99"/>
</radialGradient>
<radialGradient id="paint2_radial" cx="0" cy="0" r="1" gradientUnits="userSpaceOnUse" gradientTransform="translate(18.319 24.8033) rotate(-123.892) scale(25.6637 25.1968)">
<stop stop-color="#FFB8E0"/>
<stop offset="0.38895" stop-color="#BE9EFF"/>
<stop offset="0.673962" stop-color="#88C0FC"/>
<stop offset="1" stop-color="#86FF99"/>
</radialGradient>
<radialGradient id="paint3_radial" cx="0" cy="0" r="1" gradientUnits="userSpaceOnUse" gradientTransform="translate(18.319 24.8033) rotate(-123.892) scale(25.6637 25.1968)">
<stop stop-color="#FFB8E0"/>
<stop offset="0.38895" stop-color="#BE9EFF"/>
<stop offset="0.673962" stop-color="#88C0FC"/>
<stop offset="1" stop-color="#86FF99"/>
</radialGradient>
</defs>
</svg>
