<svg width="18" height="18" viewBox="0 0 18 18" fill="none" xmlns="http://www.w3.org/2000/svg">
<path fill-rule="evenodd" clip-rule="evenodd" d="M18 9C18 13.9706 13.9706 18 9 18C4.02944 18 0 13.9706 0 9C0 4.02944 4.02944 0 9 0C13.9706 0 18 4.02944 18 9ZM13.6895 10.0771C12.9335 9.46882 12.5 8.57979 12.5 7.63793V6.31105C12.5 4.63627 11.283 3.14959 9.5 3.01764C9.18212 2.99412 8.81788 2.99413 8.5 3.01764C6.71698 3.14953 5.5 4.63627 5.5 6.31105V7.63793C5.5 8.57979 5.0665 9.46882 4.306 10.0809C4.1115 10.2393 4 10.4697 4 10.7134C4 11.1726 4.3925 11.5462 4.875 11.5462H13.125C13.6075 11.5462 14 11.1726 14 10.7134C14 10.4697 13.8885 10.2393 13.6895 10.0771ZM8.98593 14.9999C8.97844 14.9999 8.97095 14.9998 8.96347 14.9997C7.79815 14.9823 6.85938 14.1195 6.85938 13.0576H6.85986H11.1392H11.1397C11.1397 14.1303 10.1816 15 8.99977 15C8.99515 15 8.99054 15 8.98593 14.9999Z" />
</svg>
