<svg width="14" height="14" viewBox="0 0 14 14" fill="none" xmlns="http://www.w3.org/2000/svg">
<path d="M13.4167 2.33332H12.25H10.3717L10.1797 1.56565C9.94993 0.644 9.12507 0 8.17482 0H5.82515C4.8749 0 4.05007 0.644 3.82022 1.56568L3.6283 2.33335H1.75H0.583324C0.26075 2.33332 0 2.59468 0 2.91668C0 3.23868 0.26075 3.5 0.583324 3.5H1.19815L1.68932 12.3468C1.74125 13.2737 2.5095 14 3.43757 14H10.5624C11.4905 14 12.2587 13.2737 12.3106 12.3468L12.8018 3.5H13.4166C13.7392 3.5 14 3.23868 14 2.91668C14 2.59468 13.7393 2.33332 13.4167 2.33332ZM4.95132 1.84857C5.05225 1.44725 5.411 1.16665 5.82515 1.16665H8.17482C8.589 1.16665 8.94775 1.44722 9.04865 1.84857L9.1694 2.33332H4.83057L4.95132 1.84857ZM5.25 11.0833C5.25 11.4053 4.98925 11.6666 4.66668 11.6666C4.3441 11.6666 4.08335 11.4053 4.08335 11.0833V5.25C4.08335 4.928 4.3441 4.66668 4.66668 4.66668C4.98925 4.66668 5.25 4.928 5.25 5.25V11.0833ZM7.58332 11.0833C7.58332 11.4053 7.32257 11.6666 7 11.6666C6.67743 11.6666 6.41668 11.4053 6.41668 11.0833V5.25C6.41668 4.928 6.67743 4.66668 7 4.66668C7.32257 4.66668 7.58332 4.928 7.58332 5.25V11.0833ZM9.91668 11.0833C9.91668 11.4053 9.65593 11.6666 9.33335 11.6666C9.01078 11.6666 8.75003 11.4053 8.75003 11.0833V5.25C8.75003 4.928 9.01078 4.66668 9.33335 4.66668C9.65593 4.66668 9.91668 4.928 9.91668 5.25V11.0833Z" fill="#EB2667"/>
</svg>
