<svg width="12" height="12" viewBox="0 0 12 12" fill="none" xmlns="http://www.w3.org/2000/svg">
<path d="M11.6457 1.19825L10.7911 0.342777C10.3341 -0.114602 9.5381 -0.113997 9.08175 0.342777L7.83179 1.59392L10.3958 4.16032L11.6457 2.90918C11.8742 2.6811 11.9999 2.37739 11.9999 2.05371C11.9999 1.73064 11.8742 1.42694 11.6457 1.19825Z" fill="#1E0E33"/>
<path d="M6.97657 2.45004L0.747321 8.68516C0.707428 8.72449 0.679625 8.7747 0.666932 8.82976L0.00810373 11.6279C-0.0160734 11.7295 0.0147524 11.8372 0.0884928 11.911C0.145309 11.9685 0.222676 12 0.301856 12C0.324825 12 0.348397 11.9975 0.371366 11.9921L3.16685 11.3326C3.22125 11.3199 3.27142 11.2921 3.31131 11.2522L9.54056 5.01705L6.97657 2.45004Z" fill="#1E0E33"/>
</svg>
