<svg width="11" height="14" viewBox="0 0 11 14" fill="none" xmlns="http://www.w3.org/2000/svg">
<path fill-rule="evenodd" clip-rule="evenodd" d="M3.5 0.0271418C3.09137 0.0951673 2.71097 0.289035 2.41421 0.585787L0.585786 2.41421C0.289035 2.71097 0.0951674 3.09137 0.0271418 3.5H2C2.82843 3.5 3.5 2.82843 3.5 2V0.0271418ZM4.5 0V2C4.5 3.38071 3.38071 4.5 2 4.5H0V12C0 13.1046 0.895431 14 2 14H9C10.1046 14 11 13.1046 11 12V2C11 0.895431 10.1046 0 9 0H4.5ZM2 7.75C2 7.33579 2.33579 7 2.75 7H8.25C8.66421 7 9 7.33579 9 7.75C9 8.16421 8.66421 8.5 8.25 8.5H2.75C2.33579 8.5 2 8.16421 2 7.75ZM2.75 10C2.33579 10 2 10.3358 2 10.75C2 11.1642 2.33579 11.5 2.75 11.5H6.25C6.66421 11.5 7 11.1642 7 10.75C7 10.3358 6.66421 10 6.25 10H2.75Z" fill="#376FFF"/>
</svg>
