<svg width="24" height="20" viewBox="0 0 24 20"  xmlns="http://www.w3.org/2000/svg" stroke-width="0">
<path d="M20.5385 0.0769043H3.46153C1.55283 0.0769043 0 1.62973 0 3.53844V16.4615C0 18.3702 1.55283 19.923 3.46153 19.923H20.5385C22.4472 19.923 24 18.3702 24 16.4615V3.53844C24 1.62973 22.4472 0.0769043 20.5385 0.0769043ZM22.6154 12.0769H17.5385C16.3933 12.0769 15.4615 11.1452 15.4615 9.99997C15.4615 8.85472 16.3932 7.92304 17.5385 7.92304H22.6154V12.0769ZM22.6154 6.53844H17.5385C15.6298 6.53844 14.0769 8.09127 14.0769 9.99997C14.0769 11.9087 15.6298 13.4615 17.5385 13.4615H22.6154V16.4615C22.6154 17.6067 21.6837 18.5384 20.5385 18.5384H3.46153C2.31633 18.5384 1.38459 17.6068 1.38459 16.4615V3.53844C1.38459 2.39323 2.31628 1.4615 3.46153 1.4615H20.5385C21.6837 1.4615 22.6154 2.39319 22.6154 3.53844V6.53844Z"/>
</svg>
