<svg width="83" height="81" viewBox="0 0 83 81" fill="none" xmlns="http://www.w3.org/2000/svg">
<path d="M60.3545 26.3759C60.3545 15.9537 51.9057 7.50488 41.4835 7.50488H9.40288V73.5533H41.4835C51.9057 73.5533 60.3545 65.1045 60.3545 54.6823V26.3759Z" fill="#2C3672"/>
<mask id="mask0" mask-type="alpha" maskUnits="userSpaceOnUse" x="9" y="7" width="52" height="67">
<path d="M60.3555 26.3759C60.3555 15.9537 51.9066 7.50488 41.4845 7.50488H9.40386V73.5533H41.4845C51.9067 73.5533 60.3555 65.1045 60.3555 54.6823V26.3759Z" fill="#36488D"/>
</mask>
<g mask="url(#mask0)">
<circle r="77" transform="matrix(-1 0 0 1 -22 15)" fill="#3E4A8A"/>
<circle r="77" transform="matrix(-1 0 0 1 -37 4)" fill="#525FA4"/>
</g>
<path opacity="0.7" d="M60.3555 26.3759C60.3555 15.9537 51.9066 7.50488 41.4845 7.50488H9.40386V73.5533H41.4845C51.9067 73.5533 60.3555 65.1045 60.3555 54.6823V26.3759Z" fill="url(#paint0_linear)"/>
<path d="M83 33.9243C83 28.7132 78.7756 24.4888 73.5645 24.4888H60.3548V56.5694H73.5645C78.7756 56.5694 83 52.345 83 47.1339V33.9243Z" fill="#2C3672"/>
<path d="M83 33.9247C83 28.7137 78.7756 24.4893 73.5645 24.4893H60.3548V56.5699H73.5645C78.7756 56.5699 83 52.3455 83 47.1344V33.9247Z" fill="url(#paint1_linear)"/>
<rect width="11" height="81" rx="5.5" transform="matrix(-1 0 0 1 11 0)" fill="#525FA4"/>
<defs>
<linearGradient id="paint0_linear" x1="9.00049" y1="39.5" x2="60.0005" y2="39" gradientUnits="userSpaceOnUse">
<stop stop-color="#2C3672"/>
<stop offset="1" stop-color="#2C3672" stop-opacity="0"/>
</linearGradient>
<linearGradient id="paint1_linear" x1="60" y1="41" x2="83" y2="41" gradientUnits="userSpaceOnUse">
<stop stop-color="#101846"/>
<stop offset="1" stop-color="#465192"/>
</linearGradient>
</defs>
</svg>
