<svg width="12" height="14" viewBox="0 0 12 14" fill="none" xmlns="http://www.w3.org/2000/svg">
<path d="M8.96652 6.2698C8.90577 6.13555 8.77227 6.05005 8.62527 6.05005H7.12526V1.17505C7.12526 0.968049 6.95726 0.800049 6.75026 0.800049H5.25025C5.04324 0.800049 4.87524 0.968049 4.87524 1.17505V6.05005H3.37523C3.22823 6.05005 3.09473 6.1363 3.03398 6.2698C2.97248 6.40405 2.99648 6.5608 3.09323 6.6718L5.71825 9.6718C5.7895 9.75355 5.89225 9.80005 6.00025 9.80005C6.10825 9.80005 6.211 9.7528 6.28225 9.6718L8.90727 6.6718C9.00477 6.56155 9.02727 6.40405 8.96652 6.2698Z" fill="#376FFF"/>
<path d="M10.4 9.20007V11.6001H1.6V9.20007H0V12.4001C0 12.8425 0.3584 13.2001 0.8 13.2001H11.2C11.6424 13.2001 12 12.8425 12 12.4001V9.20007H10.4Z" fill="#376FFF"/>
</svg>
