<svg width="16" height="16" viewBox="0 0 16 16" fill="none" xmlns="http://www.w3.org/2000/svg">
<path d="M8 1C8.91925 1 9.82951 1.18106 10.6788 1.53284C11.5281 1.88463 12.2997 2.40024 12.9497 3.05025C13.5998 3.70026 14.1154 4.47194 14.4672 5.32122C14.8189 6.1705 15 7.08075 15 8C15 8.91925 14.8189 9.82951 14.4672 10.6788C14.1154 11.5281 13.5998 12.2997 12.9497 12.9497C12.2997 13.5998 11.5281 14.1154 10.6788 14.4672C9.8295 14.8189 8.91925 15 8 15C7.08074 15 6.17049 14.8189 5.32121 14.4672C4.47193 14.1154 3.70026 13.5998 3.05025 12.9497C2.40024 12.2997 1.88462 11.5281 1.53284 10.6788C1.18106 9.8295 1 8.91925 1 8C1 7.08074 1.18106 6.17049 1.53284 5.32121C1.88463 4.47193 2.40024 3.70026 3.05026 3.05025C3.70027 2.40024 4.47194 1.88462 5.32122 1.53284C6.1705 1.18106 7.08075 0.999999 8 1L8 1Z" stroke="#C5CCE0" stroke-width="2" stroke-linecap="round"/>
<path d="M2.33688 12.1145C3.04087 13.0835 3.9817 13.8556 5.06938 14.357C6.15706 14.8584 7.35521 15.0724 8.54921 14.9784C9.74322 14.8845 10.8931 14.4857 11.889 13.8203C12.8848 13.1549 13.6933 12.2451 14.237 11.1779C14.7808 10.1108 15.0416 8.92196 14.9946 7.72518C14.9476 6.52841 14.5943 5.36372 13.9685 4.34251C13.3427 3.32131 12.4653 2.47775 11.4203 1.89253C10.3754 1.30731 9.1977 1 8 1" stroke="#376FFF" stroke-width="2" stroke-linecap="round"/>
</svg>
