<svg width="12" height="11" viewBox="0 0 12 11" fill="none" xmlns="http://www.w3.org/2000/svg">
<path d="M11.2728 5.10222L9.15143 2.98092C9.0992 2.92869 9.03719 2.88725 8.96894 2.85898C8.90069 2.83071 8.82754 2.81616 8.75367 2.81616C8.6798 2.81616 8.60665 2.83071 8.53841 2.85898C8.47016 2.88725 8.40815 2.92869 8.35591 2.98092C8.25043 3.08641 8.19116 3.22949 8.19116 3.37867C8.19116 3.52785 8.25043 3.67093 8.35591 3.77641L9.51701 4.93748H3.375C3.22582 4.93748 3.08274 4.99674 2.97725 5.10223C2.87176 5.20772 2.8125 5.3508 2.8125 5.49998C2.8125 5.64916 2.87176 5.79224 2.97725 5.89773C3.08274 6.00321 3.22582 6.06248 3.375 6.06248H9.51701L8.35591 7.22355C8.25043 7.32904 8.19116 7.47211 8.19117 7.6213C8.19117 7.77048 8.25043 7.91356 8.35593 8.01905C8.46142 8.12454 8.60449 8.1838 8.75368 8.18379C8.90287 8.18379 9.04594 8.12453 9.15143 8.01904L11.2728 5.89771C11.3782 5.79222 11.4375 5.64915 11.4375 5.49997C11.4375 5.35078 11.3782 5.20771 11.2728 5.10222Z" fill="#EB2667"/>
<path d="M7.125 8.6875C6.97582 8.6875 6.83274 8.74676 6.72725 8.85225C6.62176 8.95774 6.5625 9.10082 6.5625 9.25V9.8125H1.6875V1.1875H6.5625V1.75C6.5625 1.89918 6.62176 2.04226 6.72725 2.14775C6.83274 2.25324 6.97582 2.3125 7.125 2.3125C7.27418 2.3125 7.41726 2.25324 7.52275 2.14775C7.62824 2.04226 7.6875 1.89918 7.6875 1.75V1C7.6875 0.876886 7.66325 0.754977 7.61614 0.641234C7.56902 0.527492 7.49997 0.424142 7.41291 0.337087C7.32586 0.250032 7.22251 0.180977 7.10877 0.133863C6.99502 0.0867492 6.87311 0.0625 6.75 0.0625H1.5C1.25136 0.0625 1.0129 0.161272 0.837087 0.337087C0.661272 0.512903 0.5625 0.75136 0.5625 1V10C0.5625 10.2486 0.661272 10.4871 0.837087 10.6629C1.0129 10.8387 1.25136 10.9375 1.5 10.9375H6.75C6.87311 10.9375 6.99502 10.9133 7.10877 10.8661C7.22251 10.819 7.32586 10.75 7.41291 10.6629C7.49997 10.5759 7.56902 10.4725 7.61614 10.3588C7.66325 10.245 7.6875 10.1231 7.6875 10V9.25C7.6875 9.10082 7.62824 8.95774 7.52275 8.85225C7.41726 8.74676 7.27418 8.6875 7.125 8.6875Z" fill="#EB2667"/>
</svg>
