<svg  viewBox="0 0 196 200" fill="none" xmlns="http://www.w3.org/2000/svg">
<rect x="4" y="4" width="188" height="148" stroke="#fff" stroke-width="8"/>
<path fill-rule="evenodd" clip-rule="evenodd" d="M115.757 120.84H113.837L79.9973 43.8C79.0001 42 77.3745 40.3923 75.2373 39.36C73.6322 38.5847 72.6778 38.5417 70.995 38.4658C70.6122 38.4486 70.1917 38.4296 69.7173 38.4V36C72.1173 36.24 74.4373 36.36 78.6773 36.36C88.2773 36.36 96.5573 36.24 103.517 36L126.197 87L127.838 89.9609L115.757 120.84ZM176.557 38.4C173.997 38.56 173.117 38.88 171.917 39.36C170.797 39.84 170.037 40.76 169.637 42.12C169.237 43.48 169.037 45.68 169.037 48.72V108.24C169.037 111.28 169.237 113.48 169.637 114.84C170.117 116.2 170.917 117.12 172.037 117.6C172.296 117.711 172.594 117.867 172.93 118.043L172.93 118.043C174.047 118.629 175.589 119.437 177.557 119.56V120.96C172.677 120.72 165.597 120.6 156.317 120.6C146.637 120.6 139.517 120.72 134.957 120.96V119.56C137.159 119.438 138.894 118.637 140.161 118.052C140.55 117.872 140.896 117.713 141.197 117.6C142.557 117.12 143.477 116.2 143.957 114.84C144.437 113.48 144.677 111.28 144.677 108.24V46.92L149.877 36.36H156.317C165.597 36.36 171.677 36.24 176.557 36V38.4ZM59.6 38.4391C57.3294 38.5652 56.7743 38.7908 55.9746 39.1159C55.76 39.2031 55.5278 39.2975 55.24 39.3991C53.96 39.8791 53.08 40.7991 52.6 42.1591C52.12 43.5191 51.88 45.7191 51.88 48.7591V110.679C51.88 112.919 52.04 114.559 52.36 115.599C52.6523 116.549 53.143 116.977 53.8371 117.582L53.8375 117.582C53.9032 117.639 53.9707 117.698 54.04 117.759C55.8546 119.356 59.98 119.5 59.98 119.5V120.639C41.7707 120.643 28.1107 120.763 19 120.999V119.5C21.0192 119.374 22.5904 118.588 23.7138 118.025L23.714 118.025C24.0148 117.875 24.2834 117.74 24.52 117.639C25.72 117.159 26.52 116.239 26.92 114.879C27.32 113.519 27.52 111.319 27.52 108.279V48.7591C27.52 45.7191 27.28 43.5191 26.8 42.1591C26.4 40.7991 25.64 39.8791 24.52 39.3991C24.2434 39.2805 24.0448 39.1717 23.8641 39.0727C23.3131 38.7707 22.9277 38.5595 21 38.4391V36.0391C25.56 36.2791 30.68 36.3991 40.36 36.3991C49.56 36.3991 54.64 36.2791 59.6 36.0391V38.4391ZM80.5 103V94H77C77 94 77.3016 103.164 75.5418 108.628C75.3814 109.126 75.2423 109.591 75.1104 110.032C74.5466 111.917 74.1136 113.364 72.7055 115.102C70.4896 117.837 67.9309 119.106 65 119.777V121H82C82 121 80.5 110.934 80.5 103Z" fill="#fff"/>
<path d="M2.25146 176.484H8.62009V193.95H19.3631V199H2.25146V176.484Z" fill="#fff"/>
<path d="M39.9599 194.079V199H21.8833V176.484H39.5418V181.406H28.1876V185.201H38.1908V189.962H28.1876V194.079H39.9599Z" fill="#fff"/>
<path d="M58.5793 194.625H49.0585L47.2894 199H40.7922L50.7311 176.484H57.0032L66.9743 199H60.3484L58.5793 194.625ZM56.7137 189.929L53.8189 182.724L50.9241 189.929H56.7137Z" fill="#fff"/>
<path d="M68.7798 176.484H79.4263C81.8923 176.484 84.0795 176.946 85.988 177.868C87.8964 178.79 89.376 180.098 90.4267 181.792C91.4774 183.486 92.0028 185.469 92.0028 187.742C92.0028 190.015 91.4774 191.999 90.4267 193.693C89.376 195.387 87.8964 196.695 85.988 197.617C84.0795 198.539 81.8923 199 79.4263 199H68.7798V176.484ZM79.169 193.918C81.0989 193.918 82.6428 193.371 83.8008 192.277C84.9801 191.184 85.5698 189.672 85.5698 187.742C85.5698 185.812 84.9801 184.301 83.8008 183.207C82.6428 182.113 81.0989 181.567 79.169 181.567H75.1484V193.918H79.169Z" fill="#fff"/>
<path d="M103.266 199.45C101.443 199.45 99.6742 199.225 97.9588 198.775C96.2433 198.324 94.8495 197.724 93.7774 196.973L95.8681 192.277C96.8759 192.942 98.0446 193.478 99.374 193.886C100.704 194.293 102.012 194.497 103.298 194.497C105.743 194.497 106.965 193.886 106.965 192.663C106.965 192.02 106.611 191.548 105.903 191.248C105.217 190.926 104.102 190.594 102.558 190.251C100.864 189.886 99.4491 189.501 98.3126 189.093C97.1761 188.664 96.2004 187.989 95.3856 187.067C94.5708 186.145 94.1633 184.901 94.1633 183.336C94.1633 181.963 94.5386 180.73 95.2891 179.637C96.0396 178.522 97.1547 177.642 98.6342 176.999C100.135 176.356 101.969 176.034 104.134 176.034C105.614 176.034 107.072 176.206 108.509 176.549C109.946 176.87 111.211 177.353 112.304 177.996L110.342 182.724C108.198 181.567 106.118 180.988 104.102 180.988C102.837 180.988 101.915 181.181 101.336 181.567C100.757 181.931 100.468 182.414 100.468 183.014C100.468 183.614 100.811 184.065 101.497 184.365C102.183 184.665 103.287 184.976 104.81 185.298C106.525 185.662 107.941 186.059 109.056 186.488C110.192 186.895 111.168 187.56 111.983 188.482C112.819 189.383 113.237 190.616 113.237 192.181C113.237 193.532 112.862 194.754 112.111 195.848C111.361 196.941 110.235 197.82 108.734 198.485C107.233 199.128 105.41 199.45 103.266 199.45Z" fill="#fff"/>
<path d="M136.507 199L136.443 187.067L130.653 196.78H127.823L122.065 187.388V199H116.179V176.484H121.422L129.334 189.479L137.054 176.484H142.297L142.361 199H136.507Z" fill="#fff"/>
<path d="M161.953 194.625H152.432L150.663 199H144.165L154.104 176.484H160.377L170.348 199H163.722L161.953 194.625ZM160.087 189.929L157.192 182.724L154.297 189.929H160.087Z" fill="#fff"/>
<path d="M193.575 176.484V199H188.332L178.393 187.002V199H172.153V176.484H177.396L187.335 188.482V176.484H193.575Z" fill="#fff"/>
</svg>
