<svg width="24" height="24" viewBox="0 0 24 24" fill="none" xmlns="http://www.w3.org/2000/svg">
<path d="M4.84931 5.72571H14.1918C14.6457 5.72571 15.0137 6.09363 15.0137 6.54761V10.8216C15.0137 11.2756 14.6457 11.6435 14.1918 11.6435H4.84931C4.39505 11.6435 4.0274 11.2756 4.0274 10.8216V6.54761C4.0274 6.09368 4.39533 5.72571 4.84931 5.72571ZM5.67122 9.99968H13.3699V7.36952H5.67126V9.99968H5.67122Z" fill="white"/>
<path d="M0.821907 2H18.2466C18.7005 2 19.0685 2.36792 19.0685 2.82191V6.08216H23.1781C23.6321 6.08216 24 6.45012 24 6.90411V18.7123C24 20.5252 22.5252 22 20.7123 22H3.91781C1.75753 22 0 20.2425 0 18.0822V2.82191C0 2.36792 0.367922 2 0.821907 2ZM19.0685 18.7123C19.0685 19.634 19.7907 20.3562 20.7123 20.3562C21.634 20.3562 22.3561 19.634 22.3561 18.7123V7.72602H19.0685V18.7123ZM1.64381 18.0822C1.64381 19.3359 2.66409 20.3561 3.91777 20.3561H17.8658C17.5852 19.8723 17.4247 19.3104 17.4247 18.7122V3.64381H1.64381V18.0822Z" fill="white"/>
<path d="M4.84931 13.2601H14.1918C14.6457 13.2601 15.0137 13.6281 15.0137 14.082C15.0137 14.536 14.6457 14.9039 14.1918 14.9039H4.84931C4.39505 14.9039 4.0274 14.536 4.0274 14.082C4.0274 13.6281 4.39533 13.2601 4.84931 13.2601Z" fill="white"/>
<path d="M4.84931 16.5481H14.1918C14.6457 16.5481 15.0137 16.916 15.0137 17.37C15.0137 17.824 14.6457 18.1919 14.1918 18.1919H4.84931C4.39505 18.1919 4.0274 17.8239 4.0274 17.37C4.0274 16.9161 4.39533 16.5481 4.84931 16.5481Z" fill="white"/>
</svg>
