<?xml version="1.0" encoding="UTF-8"?>
<svg width="16px" height="12px" viewBox="0 0 16 12" version="1.1" xmlns="http://www.w3.org/2000/svg" xmlns:xlink="http://www.w3.org/1999/xlink">
    <title></title>
    <g id="H-&amp;-B-Online-ordering" stroke="none" stroke-width="1" fill="none" fill-rule="evenodd">
        <g id="Guideline" transform="translate(-362.000000, -522.000000)" fill="#FFFFFF" fill-rule="nonzero">
            <g id="Group-7" transform="translate(350.000000, 505.000000)">
                <g id="Group-4">
                    <path d="M17.4062371,28.5000012 C17.5104034,28.5000012 17.5937367,28.4687513 17.6562365,28.4062514 L17.6562365,28.4062514 L27.0312142,19.0312738 C27.1145475,18.9479405 27.1562139,18.8541907 27.1562139,18.7500244 C27.1562139,18.6458582 27.1145475,18.5625249 27.0312142,18.5000274 L27.0312142,18.5000274 L26.1562162,17.5937772 C26.072883,17.5312773 25.9791332,17.5000274 25.8749669,17.5000274 C25.7708007,17.5000274 25.6874674,17.5312773 25.6249675,17.5937772 L25.6249675,17.5937772 L17.4062371,25.8437575 L14.3749943,22.8125148 C14.3124945,22.7291815 14.2291612,22.6875151 14.1249949,22.6875151 C14.0208287,22.6875151 13.9270789,22.7291815 13.843748,22.8125148 L13.843748,22.8125148 L12.9687477,23.6875127 C12.8854144,23.770846 12.843748,23.8645957 12.843748,23.968762 C12.843748,24.0729283 12.8854144,24.1562615 12.9687477,24.2187614 L12.9687477,24.2187614 L17.1249878,28.4062514 C17.2083211,28.4687513 17.3020709,28.5000012 17.4062371,28.5000012 Z" id=""></path>
                </g>
            </g>
        </g>
    </g>
</svg>
