<?xml version="1.0" encoding="UTF-8"?>
<svg width="16px" height="16px" viewBox="0 0 16 16" version="1.1" xmlns="http://www.w3.org/2000/svg" xmlns:xlink="http://www.w3.org/1999/xlink">
    <title></title>
    <g id="H-&amp;-B-Online-ordering" stroke="none" stroke-width="1" fill="none" fill-rule="evenodd">
        <g id="Guideline" transform="translate(-72.000000, -520.000000)" fill="#FFFFFF" fill-rule="nonzero">
            <g id="Group-8" transform="translate(60.000000, 505.000000)">
                <g id="Group">
                    <path d="M19.9999809,30.7499958 C21.3958111,30.7499958 22.6874745,30.4010382 23.8749717,29.7031233 C25.0624689,29.0052085 26.0051751,28.0625022 26.7030899,26.8750051 C27.4010048,25.6875079 27.7499624,24.3958445 27.7499624,23.0000143 C27.7499624,21.6041841 27.4010048,20.3125207 26.7030899,19.1250235 C26.0051751,17.9375264 25.0624689,16.9948201 23.8749717,16.2969053 C22.6874745,15.5989904 21.3958111,15.2500328 19.9999809,15.2500328 C18.6041508,15.2500328 17.3124873,15.5989904 16.1249902,16.2969053 C14.937493,16.9948201 13.9947868,17.9375264 13.2968719,19.1250235 C12.5989571,20.3125207 12.2499994,21.6041841 12.2499994,23.0000143 C12.2499994,24.3958445 12.5989571,25.6875079 13.2968719,26.8750051 C13.9947868,28.0625022 14.937493,29.0052085 16.1249902,29.7031233 C17.3124873,30.4010382 18.6041508,30.7499958 19.9999809,30.7499958 Z M19.9999809,29.2499994 C18.8749836,29.2499994 17.8333196,28.9687501 16.8749884,28.4062514 C15.9166572,27.8437528 15.1562425,27.0833381 14.5937438,26.1250069 C14.0312452,25.1666756 13.7499958,24.1250116 13.7499958,23.0000143 C13.7499958,21.875017 14.0312452,20.833353 14.5937438,19.8750218 C15.1562425,18.9166905 15.9166572,18.1562759 16.8749884,17.5937772 C17.8333196,17.0312785 18.8749836,16.7500292 19.9999809,16.7500292 C21.1249782,16.7500292 22.1666423,17.0312785 23.1249735,17.5937772 C24.0833047,18.1562759 24.8437194,18.9166905 25.406218,19.8750218 C25.9687167,20.833353 26.249966,21.875017 26.249966,23.0000143 C26.249966,24.1250116 25.9687167,25.1666756 25.406218,26.1250069 C24.8437194,27.0833381 24.0833047,27.8437528 23.1249735,28.4062514 C22.1666423,28.9687501 21.1249782,29.2499994 19.9999809,29.2499994 Z M22.2187256,26.2812565 C22.3228919,26.2812565 22.4062252,26.2500066 22.468725,26.1875067 L22.468725,26.1875067 L23.1874733,25.4687584 C23.2499732,25.4062586 23.2812231,25.3229253 23.2812231,25.218759 C23.2812231,25.1145928 23.2499732,25.020843 23.1874733,24.9375097 L23.1874733,24.9375097 L21.2499779,23.0000143 L23.1874733,21.0625189 C23.2499732,20.9791856 23.2812231,20.8854359 23.2812231,20.7812696 C23.2812231,20.6771033 23.2499732,20.59377 23.1874733,20.5312702 L23.1874733,20.5312702 L22.468725,19.8125219 C22.4062252,19.7500221 22.3228919,19.7187721 22.2187256,19.7187721 C22.1145594,19.7187721 22.0208096,19.7500221 21.9374763,19.8125219 L21.9374763,19.8125219 L19.9999809,21.7500173 L18.0624855,19.8125219 C17.9791523,19.7500221 17.8854025,19.7187721 17.7812362,19.7187721 C17.67707,19.7187721 17.5937367,19.7500221 17.5312368,19.8125219 L17.5312368,19.8125219 L16.8124885,20.5312702 C16.7499887,20.59377 16.7187387,20.6771033 16.7187387,20.7812696 C16.7187387,20.8854359 16.7499887,20.9791856 16.8124885,21.0625189 L16.8124885,21.0625189 L18.7499839,23.0000143 L16.8124885,24.9375097 C16.7499887,25.020843 16.7187387,25.1145928 16.7187387,25.218759 C16.7187387,25.3229253 16.7499887,25.4062586 16.8124885,25.4687584 L16.8124885,25.4687584 L17.5312368,26.1875067 C17.5937367,26.2500066 17.67707,26.2812565 17.7812362,26.2812565 C17.8854025,26.2812565 17.9791523,26.2500066 18.0624855,26.1875067 L18.0624855,26.1875067 L19.9999809,24.2500113 L21.9374763,26.1875067 C22.0208096,26.2500066 22.1145594,26.2812565 22.2187256,26.2812565 Z" id=""></path>
                </g>
            </g>
        </g>
    </g>
</svg>
