<?xml version="1.0" encoding="UTF-8"?>
<svg width="14px" height="14px" viewBox="0 0 14 14" version="1.1" xmlns="http://www.w3.org/2000/svg" xmlns:xlink="http://www.w3.org/1999/xlink">
    <title></title>
    <g id="H-&amp;-B-Online-ordering" stroke="none" stroke-width="1" fill="none" fill-rule="evenodd">
        <g id="Guideline" transform="translate(-72.000000, -639.000000)" fill="#FFFFFF" fill-rule="nonzero">
            <g id="Group-6" transform="translate(60.000000, 623.000000)">
                <g id="Group-5">
                    <path d="M24.4999702,29.9999976 C24.9166357,29.9999976 25.2708019,29.8541645 25.5624677,29.5624987 C25.8541335,29.2708328 25.9999666,28.9166667 25.9999666,28.5000012 L25.9999666,17.500031 C25.9999666,17.0833619 25.8541335,16.7291958 25.5624677,16.43753 C25.2708019,16.1458641 24.9166357,16.000031 24.4999702,16.000031 L13.5,16.000031 C13.0833309,16.000031 12.7291648,16.1458641 12.437499,16.43753 C12.1458331,16.7291958 12,17.0833619 12,17.500031 L12,28.5000012 C12,28.9166667 12.1458331,29.2708328 12.437499,29.5624987 C12.7291648,29.8541645 13.0833309,29.9999976 13.5,29.9999976 L24.4999702,29.9999976 Z M24.3124706,28.5000012 L13.687496,28.5000012 C13.6458296,28.5000012 13.6041627,28.4791677 13.5624963,28.4375013 C13.5208299,28.3958349 13.4999964,28.354168 13.4999964,28.3125016 L13.4999964,17.687527 C13.4999964,17.6458606 13.5208299,17.6041937 13.5624963,17.5625273 C13.6041627,17.5208609 13.6458296,17.5000274 13.687496,17.5000274 L24.3124706,17.5000274 C24.3541371,17.5000274 24.3958039,17.5208609 24.4374703,17.5625273 C24.4791368,17.6041937 24.4999702,17.6458606 24.4999702,17.687527 L24.4999702,28.3125016 C24.4999702,28.354168 24.4791368,28.3958349 24.4374703,28.4375013 C24.3958039,28.4791677 24.3541371,28.5000012 24.3124706,28.5000012 Z M19.6562317,24.0000119 C19.739565,24.0000119 19.8176899,23.9635535 19.8906062,23.8906372 C19.9635225,23.8177208 20.0103974,23.739596 20.0312309,23.6562627 L20.2187304,19.4062729 C20.2395638,19.2812732 20.2135219,19.1823149 20.1406056,19.1093986 C20.0676893,19.0364822 19.968731,19.0000238 19.8437313,19.0000238 L18.1562353,19.0000238 C18.0312356,19.0000238 17.9322774,19.0364822 17.859361,19.1093986 C17.7864447,19.1823149 17.7604028,19.2812732 17.7812362,19.4062729 L17.9687358,23.6562627 C17.9895692,23.739596 18.0364441,23.8177208 18.1093604,23.8906372 C18.1822768,23.9635535 18.2604016,24.0000119 18.3437349,24.0000119 L19.6562317,24.0000119 Z M18.9999833,27.312504 C19.354149,27.312504 19.6614402,27.1822958 19.9218561,26.92188 C20.182272,26.6614641 20.3124802,26.3541728 20.3124802,26.0000072 C20.3124802,25.6458415 20.182272,25.3385502 19.9218561,25.0781344 C19.6614402,24.8177185 19.354149,24.6875103 18.9999833,24.6875103 C18.6458176,24.6875103 18.3385264,24.8177185 18.0781105,25.0781344 C17.8176946,25.3385502 17.6874864,25.6458415 17.6874864,26.0000072 C17.6874864,26.3541728 17.8176946,26.6614641 18.0781105,26.92188 C18.3385264,27.1822958 18.6458176,27.312504 18.9999833,27.312504 Z" id=""></path>
                </g>
            </g>
        </g>
    </g>
</svg>