<svg width="6" height="14" viewBox="0 0 6 14" fill="none" xmlns="http://www.w3.org/2000/svg">
<path d="M0.976969 0.399999H5.04497L4.36097 8.41H1.64297L0.976969 0.399999ZM3.01097 13.162C2.41097 13.162 1.91897 12.982 1.53497 12.622C1.15097 12.25 0.958969 11.8 0.958969 11.272C0.958969 10.732 1.15097 10.288 1.53497 9.94C1.91897 9.592 2.41097 9.418 3.01097 9.418C3.61097 9.418 4.09697 9.592 4.46897 9.94C4.85297 10.288 5.04497 10.732 5.04497 11.272C5.04497 11.8 4.85297 12.25 4.46897 12.622C4.08497 12.982 3.59897 13.162 3.01097 13.162Z" fill="white"/>
</svg>
