<?xml version="1.0" encoding="UTF-8"?>
<svg width="10px" height="10px" viewBox="0 0 10 10" version="1.1" xmlns="http://www.w3.org/2000/svg" xmlns:xlink="http://www.w3.org/1999/xlink">
    <g id="H-&amp;-B-Online-ordering" stroke="none" stroke-width="1" fill="none" fill-rule="evenodd">
        <g id="Guideline" transform="translate(-300.000000, -515.000000)">
            <g id="Group-8" transform="translate(60.000000, 505.000000)" fill-rule="nonzero">
                <g id="Group">
                    <g id="Rectangle" opacity="0.800827753">
                        <use fill="black" fill-opacity="1" filter="url(#filter-2)" xlink:href="#path-1"></use>
                        <use fill="#FF3766" xlink:href="#path-1"></use>
                    </g>
                    <path d="M249.046875,20 C249.119792,20 249.177083,19.9791665 249.21875,19.9375 L249.21875,19.9375 L249.9375,19.21875 C249.979167,19.1770835 250,19.1197915 250,19.046875 C250,18.9739585 249.979167,18.9166665 249.9375,18.875 L249.9375,18.875 L246.0625,15 L249.28125,11.78125 L249.9375,11.125 C249.979167,11.0833335 250,11.0260415 250,10.953125 C250,10.8802085 249.979167,10.8229165 249.9375,10.78125 L249.9375,10.78125 L249.21875,10.0625 C249.177083,10.0208335 249.119792,10 249.046875,10 C248.973958,10 248.916667,10.0208335 248.875,10.0625 L248.875,10.0625 L245,13.9375 L241.125,10.0625 C241.083333,10.0208335 241.026042,10 240.953125,10 C240.880208,10 240.822917,10.0208335 240.78125,10.0625 L240.78125,10.0625 L240.0625,10.78125 C240.020833,10.8229165 240,10.8802085 240,10.953125 C240,11.0260415 240.020833,11.0833335 240.0625,11.125 L240.0625,11.125 L243.9375,15 L240.0625,18.875 C240.020833,18.9166665 240,18.9739585 240,19.046875 C240,19.1197915 240.020833,19.1770835 240.0625,19.21875 L240.0625,19.21875 L240.78125,19.9375 C240.822917,19.9791665 240.880208,20 240.953125,20 C241.026042,20 241.083333,19.9791665 241.125,19.9375 L241.125,19.9375 L245,16.0625 L248.875,19.9375 C248.916667,19.9791665 248.973958,20 249.046875,20 Z" id="ï€" fill="#FFFFFF"></path>
                </g>
            </g>
        </g>
    </g>
</svg>
