<svg width="12" height="13" viewBox="0 0 12 13" fill="none" xmlns="http://www.w3.org/2000/svg">
<path d="M11.731 9.98363L9.87776 8.13021C9.50863 7.76257 8.89735 7.77373 8.51537 8.15586L7.58171 9.08931C7.52273 9.0568 7.46167 9.02284 7.39748 8.98681C6.80789 8.66012 6.00093 8.21236 5.15177 7.36258C4.3001 6.51101 3.85192 5.70281 3.52423 5.11284C3.48965 5.05034 3.45652 4.99008 3.42381 4.93285L4.05043 4.30716L4.3585 3.99871C4.74107 3.61603 4.75162 3.00493 4.38335 2.63622L2.53014 0.782592C2.16188 0.414398 1.55032 0.425568 1.16775 0.808242L0.645455 1.33354L0.659728 1.34771C0.484594 1.57118 0.338247 1.82891 0.229341 2.10685C0.128949 2.37141 0.0664456 2.62387 0.0378657 2.87685C-0.206839 4.90551 0.720197 6.75955 3.23605 9.27544C6.71373 12.7529 9.51628 12.4902 9.63719 12.4773C9.90051 12.4459 10.1529 12.383 10.4093 12.2834C10.6849 12.1757 10.9424 12.0296 11.1657 11.8548L11.1772 11.865L11.7063 11.3468C12.0881 10.9642 12.0991 10.3529 11.731 9.98363Z" fill="#A2A7B8"/>
</svg>
