<svg width="12" height="15" viewBox="0 0 12 15" fill="none" xmlns="http://www.w3.org/2000/svg">
<path d="M5.9025 6.82554C6.80166 6.82554 7.58027 6.50304 8.21644 5.86677C8.85262 5.23059 9.17511 4.45219 9.17511 3.55292C9.17511 2.65397 8.85262 1.87546 8.21634 1.23908C7.58006 0.60301 6.80156 0.280518 5.9025 0.280518C5.00323 0.280518 4.22483 0.60301 3.58865 1.23918C2.95248 1.87536 2.62988 2.65386 2.62988 3.55292C2.62988 4.45219 2.95248 5.23069 3.58876 5.86687C4.22504 6.50294 5.00354 6.82554 5.9025 6.82554Z" fill="white"/>
<path d="M11.6463 11.8606C11.6279 11.5958 11.5908 11.307 11.5362 11.002C11.481 10.6948 11.41 10.4043 11.325 10.1388C11.2372 9.86445 11.1178 9.59348 10.9702 9.3338C10.817 9.06428 10.637 8.82959 10.4351 8.63647C10.2239 8.43443 9.9654 8.27199 9.66644 8.15351C9.36852 8.03564 9.03835 7.97593 8.68518 7.97593C8.54648 7.97593 8.41234 8.03284 8.15329 8.2015C7.99386 8.30548 7.80737 8.42572 7.59921 8.55872C7.42123 8.67213 7.18011 8.77838 6.88229 8.87458C6.59172 8.9686 6.2967 9.01629 6.00551 9.01629C5.71433 9.01629 5.41941 8.9686 5.12853 8.87458C4.83102 8.77849 4.5899 8.67223 4.41212 8.55883C4.20594 8.42707 4.01935 8.30682 3.85753 8.2014C3.59879 8.03274 3.46455 7.97583 3.32585 7.97583C2.97257 7.97583 2.64251 8.03564 2.34469 8.15361C2.04593 8.27189 1.78729 8.43433 1.57593 8.63657C1.3741 8.8298 1.19404 9.06439 1.04103 9.3338C0.893519 9.59348 0.774101 9.86435 0.686195 10.1389C0.601296 10.4044 0.530287 10.6948 0.475139 11.002C0.420509 11.3066 0.383398 11.5955 0.36505 11.8609C0.347013 12.1209 0.337891 12.3907 0.337891 12.6632C0.337891 13.3725 0.563356 13.9467 1.00796 14.3701C1.44708 14.788 2.0281 15 2.73466 15H9.27699C9.98355 15 10.5644 14.7881 11.0036 14.3701C11.4483 13.947 11.6738 13.3727 11.6738 12.6631C11.6737 12.3893 11.6644 12.1193 11.6463 11.8606Z" fill="white"/>
</svg>
