<svg width="14" height="14" viewBox="0 0 14 14" fill="none" xmlns="http://www.w3.org/2000/svg">
<path d="M13.5527 12.7518L10.2207 9.28631C11.0774 8.26788 11.5468 6.98648 11.5468 5.65249C11.5468 2.53576 9.01105 0 5.89432 0C2.77758 0 0.241821 2.53576 0.241821 5.65249C0.241821 8.76923 2.77758 11.305 5.89432 11.305C7.06438 11.305 8.1794 10.9521 9.1327 10.2821L12.49 13.7739C12.6304 13.9196 12.8191 14 13.0214 14C13.2128 14 13.3944 13.927 13.5323 13.7943C13.8253 13.5124 13.8346 13.045 13.5527 12.7518ZM5.89432 1.47456C8.19808 1.47456 10.0722 3.34873 10.0722 5.65249C10.0722 7.95625 8.19808 9.83043 5.89432 9.83043C3.59056 9.83043 1.71639 7.95625 1.71639 5.65249C1.71639 3.34873 3.59056 1.47456 5.89432 1.47456Z" />
</svg>
