<svg width="16" height="14" viewBox="0 0 16 14" fill="none" xmlns="http://www.w3.org/2000/svg">
<path d="M15.0471 5.57248L2.13792 0.215914C1.59408 -0.00977394 0.979671 0.0895074 0.534514 0.474882C0.0893571 0.86032 -0.0968307 1.45419 0.0486696 2.02473L1.1977 6.53073H6.82353C7.0824 6.53073 7.29231 6.7406 7.29231 6.99951C7.29231 7.25838 7.08243 7.46829 6.82353 7.46829H1.1977L0.0486696 11.9743C-0.0968307 12.5448 0.0893258 13.1387 0.534514 13.5241C0.980578 13.9103 1.59505 14.0083 2.13795 13.7831L15.0472 8.42654C15.6349 8.18266 16 7.63585 16 6.99951C16 6.36316 15.6349 5.81632 15.0471 5.57248Z" fill="white"/>
</svg>
