<svg width="24" height="24" viewBox="0 0 24 24"  xmlns="http://www.w3.org/2000/svg" stroke-width="0">
<path d="M12 8.25C9.9322 8.25 8.25 9.93225 8.25 12C8.25 14.0677 9.93225 15.75 12 15.75C14.0677 15.75 15.75 14.0677 15.75 12C15.75 9.93225 14.0678 8.25 12 8.25ZM12 13.875C10.9661 13.875 10.125 13.0339 10.125 12C10.125 10.9661 10.9661 10.125 12 10.125C13.0339 10.125 13.875 10.9661 13.875 12C13.875 13.0339 13.0339 13.875 12 13.875Z"/>
<path d="M23.5389 14.7955L21.1114 12.9353C21.1796 12.292 21.1755 11.6688 21.1114 11.0647L23.5389 9.20456C23.9153 8.91619 24.0171 8.39222 23.7761 7.98389L21.4252 4.00055C21.191 3.6037 20.7031 3.43589 20.2743 3.60478L17.3941 4.73916C16.868 4.3627 16.305 4.04372 15.7111 3.78567L15.2787 0.803016C15.2118 0.342 14.8167 0 14.3509 0H9.64913C9.18333 0 8.78818 0.342 8.72138 0.803062L8.28901 3.78572C7.69505 4.04381 7.13204 4.36275 6.60601 4.7392L3.72577 3.60483C3.29686 3.43589 2.80904 3.60375 2.57485 4.00059L0.223926 7.98389C-0.017058 8.39222 0.0847546 8.91619 0.461067 9.20456L2.88868 11.0647C2.82043 11.708 2.8246 12.3312 2.88868 12.9353L0.461114 14.7954C0.0847545 15.0838 -0.017058 15.6078 0.223973 16.0161L2.5748 19.9995C2.80899 20.3963 3.29686 20.5641 3.72572 20.3952L6.60601 19.2609C7.13194 19.6372 7.695 19.9563 8.28896 20.2143L8.72133 23.197C8.78818 23.658 9.18333 24 9.64913 24H14.3509C14.8167 24 15.2118 23.658 15.2787 23.197L15.7111 20.2144C16.305 19.9563 16.8681 19.6373 17.394 19.2609L20.2743 20.3953C20.7031 20.5642 21.191 20.3963 21.4252 19.9995L23.7761 16.0162C24.0171 15.6078 23.9153 15.0839 23.5389 14.7955ZM20.2171 18.3575L17.5898 17.3228C17.275 17.1989 16.9182 17.254 16.6556 17.467C16.0217 17.9814 15.3102 18.3838 14.5409 18.663C14.2162 18.7809 13.9826 19.0679 13.933 19.4098L13.5395 22.125H10.4605L10.067 19.4098C10.0174 19.0679 9.78385 18.7809 9.4591 18.663C8.68979 18.3837 7.97827 17.9813 7.34438 17.467C7.08179 17.254 6.72479 17.1989 6.41016 17.3228L3.78296 18.3575L2.26088 15.7785L4.46213 14.0917C4.73879 13.8797 4.87505 13.5317 4.8158 13.1882C4.6778 12.3878 4.68235 11.5857 4.8158 10.8117C4.87505 10.4682 4.73879 10.1202 4.46213 9.90825L2.26088 8.2215L3.78296 5.64248L6.41016 6.67716C6.72493 6.80114 7.08179 6.74592 7.34438 6.53292C7.97832 6.01861 8.68983 5.61623 9.4591 5.33695C9.78385 5.21906 10.0174 4.93214 10.067 4.59023L10.4605 1.875H13.5395L13.933 4.59023C13.9826 4.93214 14.2162 5.21906 14.5409 5.33695C15.3102 5.61623 16.0217 6.01861 16.6556 6.53292C16.9182 6.74597 17.2752 6.80109 17.5898 6.67716L20.2171 5.64248L21.7391 8.2215L19.5378 9.90825C19.2612 10.1203 19.1249 10.4682 19.1842 10.8117C19.3222 11.6121 19.3176 12.4142 19.1842 13.1882C19.1249 13.5317 19.2612 13.8797 19.5378 14.0917L21.7391 15.7785L20.2171 18.3575Z"/>
</svg>
