<svg width="16" height="16" viewBox="0 0 16 16" fill="none" xmlns="http://www.w3.org/2000/svg">
<path d="M15.5393 9.69809C16.698 4.49142 12.1367 -0.23858 6.78 0.66942C3.872 -1.13525 0 0.904086 0 4.36409C0 5.16875 0.222 5.92209 0.608 6.57142C-0.468667 11.7901 4.13 16.4521 9.482 15.4821C13.2653 17.4828 17.446 13.4928 15.5393 9.69809ZM10.4473 12.8381C9.042 13.4161 6.72933 13.4194 5.33 12.6868C3.33467 11.6228 2.98 9.22742 4.70133 9.22742C5.99867 9.22742 5.588 10.7401 6.898 11.3568C7.49933 11.6348 8.792 11.6634 9.54333 11.1568C10.2853 10.6601 10.2173 9.87875 9.814 9.50542C8.74533 8.51875 5.68733 8.91075 4.28933 7.18342C3.682 6.43409 3.56733 5.11209 4.314 4.15342C5.61533 2.47875 9.434 2.37675 11.076 3.64142C12.592 4.81475 12.1827 6.37209 10.9593 6.37209C9.488 6.37209 10.2613 4.44675 7.886 4.44675C6.164 4.44675 5.48667 5.67142 6.69933 6.26742C8.34333 7.08409 12.5327 6.81142 12.5327 10.0028C12.5293 11.3308 11.7153 12.3208 10.4473 12.8381Z" fill="black"/>
</svg>
