<svg width="24" height="24" viewBox="0 0 24 24"  xmlns="http://www.w3.org/2000/svg" stroke-width="0">
<g clip-path="url(#clip0)">
<path d="M6.00001 9.42847H0.857159C0.383755 9.42847 0 9.81222 0 10.2856V23.1428C0 23.6162 0.383755 23.9999 0.857159 23.9999H6.00001C6.47342 23.9999 6.85717 23.6162 6.85717 23.1428V10.2856C6.85712 9.81222 6.47337 9.42847 6.00001 9.42847ZM5.14285 22.2856H1.71427V11.1428H5.14285V22.2856Z"/>
<path d="M14.5714 0H9.42855C8.95515 0 8.5714 0.383755 8.5714 0.857159V23.1428C8.5714 23.6162 8.95515 24 9.42855 24H14.5714C15.0448 24 15.4286 23.6162 15.4286 23.1428V0.857159C15.4286 0.383755 15.0448 0 14.5714 0ZM13.7143 22.2857H10.2857V1.71427H13.7143V22.2857Z"/>
<path d="M23.1428 6.85718H18C17.5266 6.85718 17.1428 7.24093 17.1428 7.71434V23.1429C17.1428 23.6163 17.5266 24.0001 18 24.0001H23.1428C23.6162 24.0001 24 23.6163 24 23.1429V7.71434C24 7.24093 23.6162 6.85718 23.1428 6.85718ZM22.2857 22.2857H18.8571V8.5715H22.2857V22.2857Z"/>
</g>
<defs>
<clipPath id="clip0">
<rect width="24" height="24"/>
</clipPath>
</defs>
</svg>
