<svg width="12" height="13" viewBox="0 0 12 13" fill="none" xmlns="http://www.w3.org/2000/svg">
<path d="M8.96634 3.83005C8.90559 3.9643 8.77209 4.0498 8.62509 4.0498H7.12508V8.9248C7.12508 9.1318 6.95707 9.2998 6.75007 9.2998H5.25006C5.04306 9.2998 4.87506 9.1318 4.87506 8.9248V4.0498H3.37505C3.22805 4.0498 3.09455 3.96355 3.0338 3.83005C2.9723 3.6958 2.9963 3.53905 3.09305 3.42805L5.71807 0.428055C5.78932 0.346304 5.89207 0.299805 6.00007 0.299805C6.10807 0.299805 6.21082 0.347054 6.28207 0.428055L8.90709 3.42805C9.00459 3.5383 9.02709 3.6958 8.96634 3.83005Z" fill="#376FFF"/>
<path d="M10.4 8.7002V11.1002H1.6V8.7002H0V11.9002C0 12.3426 0.3584 12.7002 0.8 12.7002H11.2C11.6424 12.7002 12 12.3426 12 11.9002V8.7002H10.4Z" fill="#376FFF"/>
</svg>
