<svg width="12" height="13" viewBox="0 0 12 13" fill="none" xmlns="http://www.w3.org/2000/svg">
<path d="M6.0015 0.5H5.9985C2.69025 0.5 0 3.191 0 6.5C0 7.8125 0.423 9.029 1.14225 10.0168L0.3945 12.2458L2.70075 11.5085C3.6495 12.137 4.78125 12.5 6.0015 12.5C9.30975 12.5 12 9.80825 12 6.5C12 3.19175 9.30975 0.5 6.0015 0.5ZM9.49275 8.97275C9.348 9.3815 8.7735 9.7205 8.31525 9.8195C8.00175 9.88625 7.59225 9.9395 6.21375 9.368C4.4505 8.6375 3.315 6.84575 3.2265 6.7295C3.14175 6.61325 2.514 5.78075 2.514 4.91975C2.514 4.05875 2.95125 3.6395 3.1275 3.4595C3.27225 3.31175 3.5115 3.24425 3.741 3.24425C3.81525 3.24425 3.882 3.248 3.942 3.251C4.11825 3.2585 4.20675 3.269 4.323 3.54725C4.46775 3.896 4.82025 4.757 4.86225 4.8455C4.905 4.934 4.94775 5.054 4.88775 5.17025C4.8315 5.29025 4.782 5.3435 4.6935 5.4455C4.605 5.5475 4.521 5.6255 4.4325 5.735C4.3515 5.83025 4.26 5.93225 4.362 6.1085C4.464 6.281 4.8165 6.85625 5.3355 7.31825C6.00525 7.9145 6.54825 8.105 6.7425 8.186C6.88725 8.246 7.05975 8.23175 7.1655 8.11925C7.29975 7.9745 7.4655 7.7345 7.63425 7.49825C7.75425 7.32875 7.90575 7.30775 8.06475 7.36775C8.22675 7.424 9.084 7.84775 9.26025 7.9355C9.4365 8.024 9.55275 8.066 9.5955 8.14025C9.6375 8.2145 9.6375 8.56325 9.49275 8.97275Z" fill="#A2A7B8"/>
</svg>
