<svg width="16" height="16" viewBox="0 0 16 16" fill="none" xmlns="http://www.w3.org/2000/svg">
<path d="M15.52 13.28L13.28 11.04C14 9.92 14.4 8.64 14.4 7.2C14.4 3.2 11.2 0 7.2 0C3.2 0 0 3.2 0 7.2C0 11.2 3.2 14.4 7.2 14.4C8.64 14.4 9.92 14 11.04 13.28L13.28 15.52C13.92 16.16 14.88 16.16 15.52 15.52C16.16 14.88 16.16 13.92 15.52 13.28ZM7.2 12.8C4.08 12.8 1.6 10.32 1.6 7.2C1.6 4.08 4.08 1.6 7.2 1.6C10.32 1.6 12.8 4.08 12.8 7.2C12.8 10.32 10.24 12.8 7.2 12.8Z" fill="#1E0E33"/>
<path d="M10.3997 6.40007H7.99971V4.00007C7.99971 3.52007 7.67971 3.20007 7.19971 3.20007C6.71971 3.20007 6.39971 3.60007 6.39971 4.00007V6.40007H3.99971C3.59971 6.40007 3.19971 6.72007 3.19971 7.20007C3.19971 7.68007 3.51971 8.00007 3.99971 8.00007H6.39971V10.4001C6.39971 10.8801 6.71971 11.2001 7.19971 11.2001C7.67971 11.2001 7.99971 10.8801 7.99971 10.4001V8.00007H10.3997C10.8797 8.00007 11.1997 7.68007 11.1997 7.20007C11.1997 6.72007 10.7997 6.40007 10.3997 6.40007Z" fill="#1E0E33"/>
</svg>
